<svg xmlns="http://www.w3.org/2000/svg" height="1024" preserveAspectRatio="none" style="display: block;" version="1.1" viewBox="0 0 2048 2048" width="1024">
<path d="M 0 0 L 2048 0 L 2048 2048 L 0 2048 L 0 0 z" fill="rgb(255,255,255)" transform="translate(0,0)"></path>
<path d="M 747.067 90.9033 C 749.275 90.8569 749.026 90.9591 751.238 91.4535 C 765.54 106.133 794.314 202.477 799.89 226.338 C 808.447 262.959 818.759 313.359 822.223 350.667 C 836.586 345.823 847.158 344.627 862.113 344.446 C 891.438 312.501 943.507 288.691 985.061 274.11 C 1008.57 265.861 1075.42 246.412 1097.96 267.397 C 1111.7 280.181 1079.65 305.863 1069.6 313.918 C 1084.16 314.282 1118.97 313.027 1129.36 326.607 C 1132.35 330.518 1129.35 335.576 1128.03 339.926 C 1130.46 340.322 1176.16 321.192 1182.39 319.643 C 1186.21 318.692 1203.18 312.543 1207.81 310.954 C 1281.81 285.574 1359.25 269.024 1437.53 265.616 C 1442.96 265.478 1468.44 263.339 1471.82 267.059 C 1480.44 276.524 1476.25 322.49 1475.06 334.082 C 1466.07 421.831 1440.05 516.069 1400.16 594.457 C 1433.1 651.616 1457.87 717.476 1466.83 783.146 C 1471.65 818.435 1473.33 852.102 1473.32 887.626 C 1483.75 889.424 1524.37 894.444 1528.84 903.335 C 1528.1 909.216 1508.55 923.585 1502.66 928.438 C 1512.64 931.147 1525.42 933.327 1534.13 938.969 C 1537.45 941.12 1539.98 943.967 1540.62 947.967 C 1543.81 967.685 1479.64 1069.87 1464.53 1090.05 C 1354.37 1237.26 1171.61 1303.59 995.498 1328.73 C 997.846 1355.94 1004.07 1372.15 1010.1 1397.34 C 1029.31 1477.74 1070.99 1543.22 1134.01 1597.49 C 1142.56 1604.79 1151.57 1611.53 1161 1617.66 C 1189.98 1636.48 1206.25 1641.58 1214.56 1677.38 C 1229.27 1673.71 1234.89 1672.05 1250.1 1671.78 C 1264.6 1620.34 1278.77 1568.8 1292.62 1517.18 C 1304.05 1473.95 1316.4 1430.64 1329.36 1387.93 C 1336.03 1365.94 1356.86 1344.31 1377.64 1335.08 C 1394 1327.81 1418.72 1324.34 1436.71 1320.55 C 1457.91 1316.1 1479.06 1311.36 1500.13 1306.32 L 1735.13 1252.71 L 1822.97 1232.9 C 1854.41 1225.86 1906.19 1209.38 1934.26 1235.39 C 1949.56 1249.56 1937.46 1282.74 1932.69 1300.75 L 1917.17 1359.05 L 1847.25 1615.54 L 1825.04 1694.99 C 1821.82 1706.17 1817.03 1720.87 1814 1731.5 C 1811.35 1740.8 1818.17 1771.94 1813.45 1782.98 C 1805.13 1789.49 1716.86 1813.36 1702.62 1817.51 L 1540.32 1864.8 C 1520.11 1871.76 1488.2 1879.32 1466.85 1885.41 L 1339.25 1922.63 C 1316.49 1929.02 1293.78 1935.54 1271.1 1942.2 C 1257.38 1946.2 1240.5 1951.45 1226.66 1953.95 C 1220.56 1955.05 1195.94 1947.93 1188.45 1946.13 L 1105.41 1925.68 L 838.389 1859.96 C 835.134 1859.13 827.882 1857.65 825.549 1855.89 C 821.459 1848.02 821.137 1823.97 820.338 1813.11 C 749.977 1842.35 617.003 1834.57 544.952 1806.07 C 523.907 1797.75 507.642 1781.61 488.672 1772.16 C 483.344 1769.5 459.092 1767.21 451.49 1765.8 C 429.759 1761.66 408.257 1756.39 387.07 1750.02 C 287.077 1719.56 186.708 1656.38 135.115 1561.58 C 78.7904 1458.08 81.3696 1296.52 193.386 1230.76 C 234.892 1206.39 303.416 1208.09 327.966 1255.98 C 344.72 1288.67 322.988 1328.68 307.655 1357.52 C 278.337 1411.2 269.24 1474.36 297.027 1530.94 C 326.79 1592.29 388.942 1620.86 450.353 1641.79 C 472.733 1524.39 568.748 1417.29 644.125 1328.85 C 654.416 1316.77 666.566 1305.14 676.023 1292.55 L 676.794 1291.5 C 666.839 1287.15 644.313 1280.56 633.015 1276.53 C 608.013 1267.42 583.439 1257.17 559.37 1245.83 C 437.922 1188.03 320.343 1095.85 240.338 987.365 C 237.789 983.908 235.274 974.689 237.808 971.83 C 243.764 965.112 263.607 956.515 270.735 952.559 C 260.271 946.757 244.526 938.606 237.781 928.27 C 234.337 923.249 238.611 916.641 243.649 915.047 C 261.359 909.443 278.676 903.614 296.059 897.043 C 294.945 784.463 314.787 691.745 352.653 585.831 C 406.461 435.324 489.794 299.192 607.775 190.318 C 647.586 153.58 697.907 113.554 747.067 90.9033 z" fill="rgb(43,29,45)" transform="translate(0,0)"></path>
<path d="M 739.731 118.163 C 769.291 174.374 803.503 330.134 807.267 394.928 C 792.861 400.965 778.545 407.216 764.324 413.679 C 761.197 391.043 756.253 356.532 752.507 334.725 C 749.033 314.497 728.515 215.899 717.052 205.685 C 707.188 205.418 674.605 244.395 667.283 253.232 C 600.401 335.321 547.794 428.068 511.661 527.598 C 507.623 538.941 499.605 560.751 497.911 572.269 C 465.849 597.323 420.792 634.989 397.284 668.41 C 482.438 589.875 605.669 509.333 708.682 455.023 C 731.448 443.022 754.535 431.639 777.917 420.887 C 786.263 417.141 812.113 406.846 818.071 403.154 C 821.078 396.526 818.454 383.445 817.507 375.667 C 837.796 369.544 859.324 366.14 880.317 363.541 C 899.897 361.312 979.577 360.421 995.115 366.578 C 1014.26 369.553 1052.29 377.075 1069.5 384.792 L 1071.1 385.49 C 1084.84 387.258 1162.42 414.717 1174.34 423.567 C 1286.43 477.568 1378.65 573.487 1420.25 691.537 C 1420.92 693.419 1421.55 695.31 1422.16 697.21 C 1409.58 676.714 1395.27 656.502 1370.26 650.459 C 1355.86 646.844 1340.61 649.314 1328.09 657.287 C 1302.71 673.341 1282.84 720.149 1276.12 748.279 C 1251.22 683.175 1218.16 611.075 1175 555.995 C 1170.57 550.335 1161.85 539.712 1155.93 536.528 L 1154.29 536.966 C 1151.96 545.368 1150.04 573.943 1147.89 585.836 C 1139.13 634.29 1125.86 695.143 1104.72 739.615 C 1095.58 725.045 1087.64 712.111 1076.04 699.131 C 954.483 563.044 752.115 636.885 715.467 807.051 C 707.814 842.585 710.813 876.543 719.199 911.634 C 690.413 932.685 663.137 949.691 632.781 967.925 C 549.467 1018.85 460.784 1060.41 368.343 1091.86 C 343.769 1069.48 318.275 1046.55 296.85 1021.12 C 290.752 1013.88 268.151 989.736 266.007 982.423 C 267.751 979.234 298.337 964.168 305.956 959.22 C 306.623 944.065 285.397 934.337 273.529 928.129 C 287.248 923.005 303.391 921.6 315.407 913.763 C 320.132 910.681 320.134 907.856 320.881 902.576 C 319.786 881.496 319.959 863.026 320.863 841.901 C 320.813 828.722 324.167 792.498 326.37 780.224 C 332.582 742.565 340.853 705.274 351.143 668.519 C 373.178 588.013 408.116 503.316 447.973 429.889 C 462.716 402.73 479.917 378.205 497.422 353.051 C 551.441 275.427 616.545 202.746 694.617 148.743 C 708.399 139.21 725.549 126.24 739.731 118.163 z" fill="rgb(193,191,191)" transform="translate(0,0)"></path>
<path d="M 880.317 363.541 C 899.897 361.312 979.577 360.421 995.115 366.578 L 994.695 367.718 C 998.729 373.326 1032.98 397.06 1042.99 407.577 C 1072.93 439.012 1104.16 476.566 1112.95 520.291 C 1113.6 523.517 1111.28 531.58 1108.23 533.768 C 1090.12 543.362 1068.91 504.466 1060.98 493.731 C 1021.72 440.546 967.196 400.668 906.568 375.169 C 899.283 372.105 887.438 364.234 880.317 363.541 z" fill="rgb(112,98,109)" transform="translate(0,0)"></path>
<path d="M 320.881 902.576 L 416.338 912.536 C 432.334 914.366 493.676 918.439 495.836 936.672 C 489.285 962.324 328.372 975.202 305.956 959.22 C 306.623 944.065 285.397 934.337 273.529 928.129 C 287.248 923.005 303.391 921.6 315.407 913.763 C 320.132 910.681 320.134 907.856 320.881 902.576 z" fill="rgb(112,98,109)" transform="translate(0,0)"></path>
<path d="M 320.863 841.901 C 320.813 828.722 324.167 792.498 326.37 780.224 C 329.892 783.975 340.523 783.897 346.879 784.983 C 366.638 788.36 386.434 791.511 406.265 794.435 C 421.377 796.643 496.566 803.784 497.313 821.255 C 492.773 829.328 477.308 833.841 468.874 836.246 C 427.097 848.158 363.736 851.091 320.863 841.901 z" fill="rgb(112,98,109)" transform="translate(0,0)"></path>
<path d="M 1071.1 385.49 C 1084.84 387.258 1162.42 414.717 1174.34 423.567 C 1175.05 426.749 1180.35 431.995 1182.62 436.029 C 1195.47 458.801 1223.67 498.104 1215.9 524.994 C 1212.67 536.157 1195.63 528.415 1189.66 521.148 C 1179.08 508.278 1170.84 490.411 1160.62 476.916 C 1135.71 442.501 1104.46 411.735 1071.1 385.49 z" fill="rgb(112,98,109)" transform="translate(0,0)"></path>
<path d="M 956.058 544.246 C 966.36 543.682 988.636 549.767 984.822 563.432 C 972.775 567.383 967.194 542.922 941.83 565.54 L 940.864 566.418 C 933.956 573.805 930.306 584.252 924.536 586.711 C 922.78 585.58 922.161 585.229 921.955 582.798 C 920.197 562.073 937.096 547.953 956.058 544.246 z" fill="rgb(43,29,45)" transform="translate(0,0)"></path>
<path d="M 1290.12 563.1 C 1315.92 559.492 1334.87 593.954 1326.16 602.042 L 1323.63 601.38 C 1319.91 598.514 1318.28 594.306 1316.04 590.031 C 1291.61 554.613 1287.9 583.508 1275.56 584.855 L 1274.12 583.483 C 1273.11 572.443 1281.46 567.351 1290.12 563.1 z" fill="rgb(43,29,45)" transform="translate(0,0)"></path>
<path d="M 1158.6 545.543 C 1199.02 581.555 1253.29 708.836 1273.29 759.758 C 1272.49 762.914 1271.69 768.266 1271.3 771.609 C 1262.99 841.757 1265.96 920.672 1291.74 986.951 C 1296.78 999.536 1301.91 1011.99 1310.22 1022.82 C 1334.18 1054.05 1377.62 1048.9 1405.45 1026.3 C 1441.41 997.095 1453.36 951.303 1458.78 907.436 C 1468.6 909.562 1478.5 911.226 1488.47 912.423 C 1446.99 942.665 1486.24 944.908 1515.87 953.857 C 1510.93 965.418 1504.08 977.305 1498.4 988.653 C 1478.61 1028.15 1456.25 1062.88 1428.13 1097.02 C 1364.48 1174.31 1268.44 1231.43 1173.69 1262.03 C 1116.11 1280.63 1033.59 1301.25 973.651 1306.39 C 966.009 1337.28 973.994 1365.87 976.246 1396.16 C 980.681 1455.8 984.951 1506.07 1005.36 1563.24 C 1019.86 1603.84 1047.49 1647.45 1049.49 1690.45 C 1050.37 1709.39 1040.56 1723.73 1028.07 1736.83 C 1019.15 1690.95 1000.98 1664.37 950.526 1661.85 C 923.465 1638.7 903.652 1618.22 880.102 1591.32 C 802.592 1499.28 793.37 1426.39 823.811 1312.45 C 841.659 1311.27 855.915 1311.9 874.887 1309.97 C 860.587 1307.19 845.188 1305.33 830.67 1303.18 C 664.24 1278.52 498.164 1211.14 372.439 1095.11 C 404.688 1086.07 434.345 1074.17 465.197 1061.25 C 555.739 1023.71 641.532 975.618 720.795 917.963 C 723.997 927.86 728.744 939.283 733.242 948.642 C 756.995 998.58 799.585 1037.06 851.671 1055.63 C 886.749 1067.86 922.447 1069.99 959.039 1064.43 C 1038.58 1052.33 1094.72 1003.97 1120.35 927.57 C 1140.61 868.175 1136.2 803.136 1108.11 747.018 C 1140.27 673.208 1148.72 624.557 1158.6 545.543 z" fill="rgb(255,255,255)" transform="translate(0,0)"></path>
<path d="M 1318.5 1047.58 C 1321.04 1049.39 1323.11 1053.19 1324.89 1055.95 C 1324.7 1058.35 1324.44 1060.75 1324.12 1063.14 C 1320.3 1090.61 1291.78 1108.4 1265.72 1108.46 C 1260.38 1108.48 1254.7 1107.41 1249.43 1106.53 C 1235.82 1128.12 1221.71 1154.02 1200.96 1169.33 C 1134.79 1218.17 1056.74 1197.54 1067.86 1104.77 L 1070.05 1093.12 C 1057.97 1095.03 1042.25 1097.75 1036.69 1083.17 L 1037.48 1081.54 C 1042.9 1080.95 1047.3 1086.51 1056.27 1085.71 C 1069.34 1084.55 1075.99 1076.57 1084.24 1067.68 C 1087.73 1066.64 1086.12 1066.51 1089.24 1067.65 C 1090.82 1070.93 1090.37 1075.06 1090.33 1078.84 C 1120.03 1109.04 1180.93 1104.77 1210.75 1077.37 C 1214.23 1074.17 1219.69 1069.23 1224.36 1068.92 C 1228.56 1073.02 1227.27 1080.17 1228.92 1082.47 C 1247.16 1107.99 1303.29 1099.43 1312.93 1069.24 C 1315.45 1061.35 1315.56 1055.02 1318.5 1047.58 z" fill="rgb(43,29,45)" transform="translate(0,0)"></path>
<path d="M 1217.39 1084.94 C 1218.5 1085.82 1222.05 1090 1223.51 1091.5 C 1228.6 1096.72 1232.59 1099.53 1238.7 1103.36 C 1226.99 1125.14 1208.01 1149.87 1189.47 1165.87 C 1167.28 1138.61 1147.52 1130.34 1113.24 1126.14 C 1099.71 1124.92 1091.72 1125.04 1078.17 1126.17 C 1078.86 1112.05 1079.99 1101.61 1082.15 1087.84 C 1113.35 1117.14 1167.74 1118.59 1202.62 1095.43 C 1207.62 1092.11 1212.55 1088.5 1217.39 1084.94 z" fill="rgb(140,131,138)" transform="translate(0,0)"></path>
<path d="M 1089.18 1137.3 C 1119.57 1134.1 1163.12 1142.67 1178.68 1172.11 C 1172.66 1175.69 1169.73 1176.81 1163.25 1179.38 C 1133.94 1189.58 1095.89 1186.08 1082.66 1152.59 C 1081.11 1148.67 1079.78 1144.2 1079.85 1139.97 C 1082.02 1137.94 1086.02 1137.79 1089.18 1137.3 z" fill="rgb(243,199,188)" transform="translate(0,0)"></path>
<path d="M 1210.63 978.396 C 1233.95 974.826 1268.14 982.096 1277.89 1006.24 C 1271.29 1024.67 1257.41 1033.73 1239.75 1039.34 C 1226.15 1041.62 1207.97 1038.74 1196.95 1030.36 C 1158.73 1001.28 1165.79 982.939 1210.63 978.396 z" fill="rgb(43,29,45)" transform="translate(0,0)"></path>
<path d="M 1213.6 987.413 C 1225.3 986.673 1271.77 988.434 1263.11 1012.32 C 1260.42 1019.72 1243.26 1027.56 1235.26 1029.88 C 1216.59 1031.29 1202.29 1023.04 1189.46 1010.01 C 1184.85 1005.33 1181.35 1001.99 1184.01 995.441 C 1190.73 989.378 1204.71 988.34 1213.6 987.413 z" fill="rgb(243,199,188)" transform="translate(0,0)"></path>
<path d="M 911.529 1359.09 C 924.356 1358.62 951.026 1370.83 963.048 1377.07 C 970.019 1381.46 974.609 1390.58 967.89 1397.33 C 958.566 1406.69 948.495 1407.21 936.196 1407.91 C 946.564 1416.11 961.574 1431.18 960.226 1445.45 C 959.919 1448.73 958.241 1451.73 955.607 1453.7 C 948.611 1458.94 937.804 1456.75 929.604 1455.89 C 935.535 1465.06 942.772 1475.98 944.709 1486.95 C 950.768 1521.28 931.265 1516.18 912.859 1498.82 C 921.47 1504.19 937.413 1514.18 939.223 1497.13 C 930.366 1456.33 913.834 1457.13 899.1 1429.4 C 909.583 1434.83 934.316 1451.15 946.46 1445.18 C 953.978 1431.18 915.816 1401.09 906.897 1393.22 C 916.592 1395.87 949.941 1404 954.4 1390.16 C 951.373 1381.61 920.263 1369.2 911.529 1359.09 z" fill="rgb(43,29,45)" transform="translate(0,0)"></path>
<path d="M 1914.42 1242.26 C 1917.84 1243.46 1923.39 1248.14 1924.03 1251.34 C 1926.39 1262.99 1917.35 1288.52 1914.56 1299.11 L 1899.4 1356.71 L 1866.27 1481.63 C 1852.56 1533.18 1838.19 1584.55 1823.17 1635.73 C 1815.12 1664.15 1805.76 1702.15 1795.33 1728.6 C 1769.77 1734.44 1743.41 1742.78 1718.1 1750.08 L 1594.93 1785.25 L 1239.91 1884.55 L 1229.86 1886.7 C 1234.64 1865.56 1241.85 1842.83 1247.37 1821.57 C 1266.68 1748.23 1286.39 1674.98 1306.49 1601.85 L 1343.16 1468.4 C 1354.48 1426.85 1361.02 1367.19 1412.43 1357.38 C 1424.23 1355.12 1436.14 1352.77 1447.93 1350.42 C 1469.52 1346 1491.08 1341.43 1512.61 1336.72 L 1749.85 1282.96 C 1787.46 1274.47 1825.03 1266.58 1862.32 1256.71 C 1879.6 1252.13 1897.54 1248.06 1914.42 1242.26 z" fill="rgb(255,255,255)" transform="translate(0,0)"></path>
<path d="M 1609.87 1466.33 C 1634.58 1463.67 1650.25 1478.45 1655.48 1501.68 C 1663.25 1536.2 1650.14 1572.65 1631.92 1601.67 C 1617.74 1624.27 1598.16 1640.23 1572 1645.94 C 1483.16 1653.05 1526.57 1478.1 1609.87 1466.33 z" fill="rgb(43,29,45)" transform="translate(0,0)"></path>
<path d="M 1608.12 1474.2 C 1681.53 1467.16 1653.25 1613.85 1572.72 1638.56 C 1494.28 1645.62 1533.73 1489.73 1608.12 1474.2 z" fill="rgb(255,255,255)" transform="translate(0,0)"></path>
<path d="M 913.79 651.42 C 956.334 646.42 1006.99 665.893 1039.7 692.32 C 1113.95 752.86 1133.2 859.009 1095.19 945.055 C 1066.81 1009.3 1005.97 1045.38 937.248 1051.93 C 891.986 1055.74 844.772 1039.82 809.537 1011.45 C 767.708 977.318 741.156 927.962 735.723 874.247 C 729.974 819.355 746.342 764.436 781.205 721.648 C 816.391 679.134 858.561 656.6 913.79 651.42 z" fill="rgb(255,255,255)" transform="translate(0,0)"></path>
<path d="M 1029.23 769.255 C 1041.97 768.245 1054.67 771.505 1065.35 778.52 C 1084.44 790.864 1096.76 815.304 1101.27 837.084 C 1114.99 903.39 1077.31 1000.37 1004.77 1015.17 C 991.037 1016.8 976.38 1015.09 965.109 1006.47 C 888.917 948.192 938.885 784.604 1029.23 769.255 z" fill="rgb(43,29,45)" transform="translate(0,0)"></path>
<path d="M 1039.47 801.349 C 1091.02 806.442 1066.29 888.036 1017.46 898.14 C 968.229 895.484 984.758 811.867 1039.47 801.349 z" fill="rgb(255,255,255)" transform="translate(0,0)"></path>
<path d="M 696.745 1295.08 C 741.426 1303.02 770.164 1307.8 815.425 1311.3 C 787.316 1384.53 785.31 1451.83 817.196 1523.99 C 825.357 1542.13 835.177 1559.48 846.529 1575.81 C 794.177 1568.34 765.108 1585.72 726.611 1619.33 C 702.904 1566.72 694.847 1527.52 689.087 1471.3 C 680.141 1534.58 694.755 1587.82 722.783 1644.83 C 728.46 1656.38 737.188 1668.67 743.584 1680.13 C 706.565 1681.81 680.944 1680.83 644.393 1672.69 C 663.868 1684.47 673.198 1689.48 696.045 1694.69 C 663.626 1724.65 641.743 1760.83 654.818 1806.36 C 598.769 1801.06 536.134 1790.82 497.583 1745.48 C 455.801 1696.33 475.046 1617.39 501.331 1565.18 C 507.495 1552.08 518.157 1530.24 526.403 1519.01 C 538.941 1496.87 551.612 1479.4 566.726 1459.04 C 573.268 1448.48 589.477 1429.06 597.801 1418.63 C 618.129 1389.45 645.03 1360.8 666.821 1332.52 C 676.358 1320.14 688.388 1308.25 696.745 1295.08 z" fill="rgb(193,191,191)" transform="translate(0,0)"></path>
<path d="M 526.403 1519.01 L 527.366 1519.9 C 535.347 1527.15 541.135 1529.74 550.108 1534.53 C 564.03 1541.95 599.666 1549.38 601.761 1567.67 C 603.555 1583.31 577.486 1587.37 566.104 1587.04 C 543.43 1586.37 519.553 1580.69 501.951 1565.81 C 501.745 1565.6 501.538 1565.39 501.331 1565.18 C 507.495 1552.08 518.157 1530.24 526.403 1519.01 z" fill="rgb(112,98,109)" transform="translate(0,0)"></path>
<path d="M 597.801 1418.63 C 608.275 1437.21 629.506 1443.08 646.006 1454.06 C 659.69 1463.17 663.825 1477.61 645.265 1483.89 C 620.365 1492.31 583.449 1477.98 566.726 1459.04 C 573.268 1448.48 589.477 1429.06 597.801 1418.63 z" fill="rgb(112,98,109)" transform="translate(0,0)"></path>
<path d="M 1354.78 667.147 C 1447.62 660.75 1502.36 991.823 1374.61 1031.93 C 1286.86 1055.82 1280.87 897.12 1281.02 841.298 C 1281.16 789.3 1295.63 683.164 1354.78 667.147 z" fill="rgb(255,255,255)" transform="translate(0,0)"></path>
<path d="M 1330.35 777.117 C 1339.18 776.883 1343.27 777.851 1350.51 783.147 C 1395.74 816.21 1394.28 995.452 1340.63 1008.16 C 1319.14 1007.94 1307.55 986.993 1301.25 969.031 C 1283.05 917.136 1279.75 855.992 1303.09 805.117 C 1308.98 792.269 1316.62 781.968 1330.35 777.117 z" fill="rgb(43,29,45)" transform="translate(0,0)"></path>
<path d="M 1319.86 816.04 C 1353.5 816.257 1345.7 873.283 1326.64 890.844 C 1302.49 899.555 1295.62 836.796 1319.86 816.04 z" fill="rgb(255,255,255)" transform="translate(0,0)"></path>
<path d="M 138.492 1329.02 C 154.662 1292.17 178.633 1260.52 217.386 1244.88 C 246.931 1232.96 295.274 1234.7 308.768 1269.71 C 316.786 1290.51 302.377 1319.19 292.9 1337.97 C 289.865 1344.01 286.755 1350.01 283.57 1355.97 C 274.991 1375.26 267.741 1391.47 262.306 1412.06 C 259.212 1424.8 256.997 1443.11 257.025 1456.46 C 257.665 1478.45 259.006 1495.79 266.043 1516.87 C 273.476 1534.76 280.941 1550.22 291.788 1566.28 C 258.44 1570.79 232.183 1603.27 219.829 1632.6 C 200.601 1615.66 184.951 1596.48 169.881 1575.91 C 153.217 1551.1 144.289 1529.32 135.021 1501.32 C 125.749 1474.27 122.919 1450.12 122.051 1421.86 C 122.053 1397.49 128.975 1351.74 138.492 1329.02 z" fill="rgb(112,98,109)" transform="translate(0,0)"></path>
<path d="M 135.021 1501.32 C 162.516 1460.5 210.21 1447.51 257.025 1456.46 C 257.665 1478.45 259.006 1495.79 266.043 1516.87 C 273.476 1534.76 280.941 1550.22 291.788 1566.28 C 258.44 1570.79 232.183 1603.27 219.829 1632.6 C 200.601 1615.66 184.951 1596.48 169.881 1575.91 C 153.217 1551.1 144.289 1529.32 135.021 1501.32 z" fill="rgb(112,98,109)" transform="translate(0,0)"></path>
<path d="M 169.881 1575.91 C 193.108 1540.28 224.376 1522.75 266.043 1516.87 C 273.476 1534.76 280.941 1550.22 291.788 1566.28 C 258.44 1570.79 232.183 1603.27 219.829 1632.6 C 200.601 1615.66 184.951 1596.48 169.881 1575.91 z" fill="rgb(193,191,191)" transform="translate(0,0)"></path>
<path d="M 138.492 1329.02 C 154.662 1292.17 178.633 1260.52 217.386 1244.88 C 246.931 1232.96 295.274 1234.7 308.768 1269.71 C 316.786 1290.51 302.377 1319.19 292.9 1337.97 C 289.865 1344.01 286.755 1350.01 283.57 1355.97 C 262.307 1320.31 208.549 1307.26 170.539 1318.02 C 160.081 1320.99 149.995 1325.9 139.468 1328.77 L 138.492 1329.02 z" fill="rgb(193,191,191)" transform="translate(0,0)"></path>
<path d="M 122.051 1421.86 C 138.289 1405.21 159.697 1394.56 182.774 1391.66 C 210.399 1388.03 240.155 1394.89 262.306 1412.06 C 259.212 1424.8 256.997 1443.11 257.025 1456.46 C 210.21 1447.51 162.516 1460.5 135.021 1501.32 C 125.749 1474.27 122.919 1450.12 122.051 1421.86 z" fill="rgb(193,191,191)" transform="translate(0,0)"></path>
<path d="M 711.953 219.721 C 712.02 219.764 712.092 219.801 712.153 219.851 C 727.019 232.039 749.946 387.585 754.185 417.971 C 744.217 422.972 734.185 427.802 724.193 432.746 C 660.043 464.489 599.416 502.346 539.528 541.355 C 530.36 547.707 521.884 554.248 512.451 560.47 C 551.829 444.509 624.761 306.396 711.953 219.721 z" fill="rgb(255,255,255)" transform="translate(0,0)"></path>
<path d="M 816.679 1581.37 C 828.776 1580.03 838.783 1580.85 850.795 1581.68 C 874.435 1613.57 902.001 1642.36 932.84 1667.37 C 916 1670.35 912.188 1671.88 897.853 1681.29 C 922.034 1673.35 942.381 1673.27 966.958 1681.53 C 987.12 1688.31 1005.44 1709.99 1008.04 1731.11 C 1009.21 1740.67 1004.61 1746.9 998.802 1753.64 C 995.56 1739.98 989.708 1720.8 975.805 1714.65 C 973.456 1713.61 973.518 1713.97 971.496 1714.85 C 969.937 1719.03 974.614 1727.41 976.655 1731.35 C 982.349 1742.37 984.418 1750.43 986.705 1762.64 C 977.005 1768.93 968.304 1771.46 957.225 1774.06 C 951.762 1770.73 948.725 1735.26 929.833 1732.99 L 928.584 1734.31 C 928.877 1740.78 935.355 1751.21 937.701 1758.16 C 940.042 1765.1 941.081 1769.35 942.627 1776.62 C 919.856 1778.32 898.204 1776.57 876.056 1769.16 C 826.679 1752.64 780.492 1705.37 750.957 1663.11 C 743.268 1652.11 736.263 1638.09 730.212 1626.12 C 753.663 1601.36 782.896 1585.93 816.679 1581.37 z" fill="rgb(255,255,255)" transform="translate(0,0)"></path>
<path d="M 1433.12 288.576 C 1439.51 287.981 1447.09 287.989 1453.6 287.843 C 1454.06 364.929 1435.76 434.981 1411.37 507.377 C 1406.05 523.171 1393.61 557.632 1385 571.456 C 1376.97 560.332 1367.51 546.294 1358.78 536.115 C 1379.41 495.115 1391.51 443.034 1398.64 397.691 C 1399.12 393.225 1403.51 369.42 1398.06 367.739 C 1386.05 364.035 1348.65 370.785 1337.59 372.52 C 1284.39 382.949 1255.33 393.027 1206.17 412.775 C 1175.4 396.047 1143.02 382.466 1109.53 372.239 C 1136.7 362.957 1164.84 349.704 1192.41 339.745 C 1269.78 311.241 1350.85 294.008 1433.12 288.576 z" fill="rgb(193,191,191)" transform="translate(0,0)"></path>
<path d="M 1234.35 1716.33 C 1235.69 1716.02 1236.25 1716.22 1237.71 1716.33 C 1238.67 1721.29 1233.13 1740.35 1231.56 1746.32 C 1165.37 1765.53 1096.87 1780.49 1030.52 1799.46 C 1027.27 1800.39 1026.45 1802.55 1025.36 1805.36 C 1025.75 1809.98 1027.92 1814.44 1032.84 1815.85 C 1086.05 1831.14 1146.74 1840.69 1198.63 1859.06 L 1194.03 1877.08 C 1195.51 1880.51 1197.34 1884.23 1198.94 1887.65 C 1151.96 1874.81 1101.14 1863 1053.79 1852.03 C 983.357 1834.92 912.807 1816 841.914 1800.62 C 853.525 1796.81 862.912 1793.64 873.942 1788.33 C 913.702 1796.9 941.764 1800.68 982.102 1786.53 C 992.007 1783.46 1002.82 1775.49 1012.48 1772.56 C 1035.71 1765.68 1059.66 1759.64 1083.01 1753.31 C 1101.48 1748.3 1116.85 1742.29 1136.17 1743.2 C 1145.41 1743.63 1157.02 1742.24 1166.21 1740.91 C 1183.24 1738.45 1195.95 1735.12 1206.62 1720.6 C 1215.09 1719.92 1225.8 1717.79 1234.35 1716.33 z" fill="rgb(255,255,255)" transform="translate(0,0)"></path>
<path d="M 1793.99 1744.19 C 1795.08 1744.05 1795.46 1744.27 1796.61 1744.5 C 1798.69 1748.9 1798.47 1764.84 1798.58 1770.21 C 1782.76 1775.62 1761.7 1780.43 1745.03 1785.29 C 1700.47 1798.67 1655.8 1811.71 1611.04 1824.4 C 1484.52 1861.47 1357.58 1897.1 1230.25 1931.28 C 1225.97 1929.86 1225.47 1907.77 1224.93 1902.6 C 1273.78 1891.95 1335.26 1872.46 1384.04 1858.97 L 1634.24 1789.2 C 1688.44 1773.88 1739.06 1758.73 1793.99 1744.19 z" fill="rgb(255,255,255)" transform="translate(0,0)"></path>
<path d="M 1061.33 1550.64 C 1063.76 1551.36 1108.09 1601.38 1115.59 1608.14 C 1125.28 1616.9 1135.61 1624.91 1146.5 1632.13 C 1158.65 1640.03 1174.33 1647.8 1184.04 1658.09 C 1203.03 1678.21 1206.75 1698.24 1186.44 1717.95 C 1184.63 1704.9 1182.22 1689.4 1173.15 1679.07 C 1169.93 1675.4 1166 1671.13 1161.09 1670.96 C 1157.38 1677.55 1168.75 1694.93 1170.76 1703.45 C 1172.77 1711.98 1173.06 1712.83 1173.16 1721.85 C 1169.37 1725.64 1139.81 1726.5 1133.04 1726.95 C 1132.94 1719.5 1129.72 1681.45 1118.43 1684.29 C 1108.47 1694.7 1123.42 1710.82 1121.09 1720.81 C 1118.25 1732.97 1073.9 1712.7 1067.78 1709.76 C 1068.62 1701.66 1069.83 1691.55 1069.22 1683.58 C 1066.29 1645.37 1046.15 1607.92 1029.93 1573.73 C 1040.73 1561.41 1046.82 1558.1 1061.33 1550.64 z" fill="rgb(255,255,255)" transform="translate(0,0)"></path>
<path d="M 705.195 1696.33 C 722.811 1698.09 738.914 1698.03 756.606 1698.05 C 774.737 1721.56 818.342 1763.36 845.608 1773.34 C 836.94 1779.44 827.933 1785.06 818.631 1790.14 C 818.178 1788.01 817.665 1785.88 817.091 1783.77 C 814.986 1775.8 808.08 1755.89 797.555 1759.37 C 796.004 1763.06 799.228 1768.36 800.995 1772.38 C 804.84 1781.13 805.715 1787.53 806.851 1796.84 C 801.031 1798.67 794.685 1799.93 788.702 1801.25 C 785.107 1802.03 783.507 1802.29 779.847 1802.6 C 774.559 1800.01 772.016 1764.8 756.03 1766.48 C 753.683 1771.79 765.804 1794.95 767.704 1804.42 C 736.909 1809.9 694.446 1808.42 663.539 1806.74 C 652.109 1757.07 670.734 1729.61 705.195 1696.33 z" fill="rgb(255,255,255)" transform="translate(0,0)"></path>
<path d="M 1384.05 378.445 C 1387.52 378.051 1386.12 377.558 1388.69 378.98 C 1390.05 387.306 1383.81 419.12 1382.29 428.678 C 1376.86 462.847 1362.71 495.589 1351.03 527.884 C 1328.57 503.195 1314.19 488.834 1288.35 466.938 C 1266.45 449.026 1242.53 434.598 1218.72 419.354 C 1281.35 396.865 1315.55 385.234 1384.05 378.445 z" fill="rgb(255,255,255)" transform="translate(0,0)"></path>
<path d="M 840.875 1807.74 C 871.426 1817.36 915.947 1826.32 948.289 1834.08 L 1132.19 1879.58 C 1148.01 1883.6 1163.88 1887.45 1179.78 1891.13 C 1191.47 1893.89 1207.78 1897.21 1218.4 1901.86 C 1219.4 1909.03 1219.91 1925.42 1220.36 1933.28 C 1200.31 1930.06 1173.11 1922.43 1153.17 1917.42 L 1055.42 1893.07 L 841.913 1840.58 C 840.801 1829.97 840.97 1818.48 840.875 1807.74 z" fill="rgb(255,255,255)" transform="translate(0,0)"></path>
<path d="M 291.788 1566.28 C 308.974 1586.15 315.513 1593.52 336.22 1610.53 C 347.766 1619.16 366.621 1632.06 379.729 1638.15 C 362.042 1654.19 351.463 1689.27 349.703 1712.71 C 325.074 1702.65 308.358 1693.91 285.254 1681.08 C 266.059 1668.19 236.248 1648.56 219.829 1632.6 C 232.183 1603.27 258.44 1570.79 291.788 1566.28 z" fill="rgb(112,98,109)" transform="translate(0,0)"></path>
<path d="M 336.22 1610.53 C 347.766 1619.16 366.621 1632.06 379.729 1638.15 C 362.042 1654.19 351.463 1689.27 349.703 1712.71 C 325.074 1702.65 308.358 1693.91 285.254 1681.08 C 294.405 1657.79 318.367 1627.91 336.22 1610.53 z" fill="rgb(193,191,191)" transform="translate(0,0)"></path>
<path d="M 1889.75 1237.34 C 1894.29 1236.85 1898.17 1236.29 1902.41 1238.17 C 1897.78 1244.64 1764.14 1273.56 1748.03 1277.19 L 1509.88 1330.97 C 1487.23 1335.98 1464.56 1340.86 1441.86 1345.61 C 1423.82 1349.28 1401.46 1351.33 1386.23 1361.7 C 1354.4 1383.36 1350.44 1420.82 1340.61 1454.71 C 1325.01 1508.65 1310.12 1562.79 1295.97 1617.12 C 1277.39 1683.55 1259.56 1750.18 1242.49 1817.01 C 1236.5 1840.51 1229.02 1861.81 1224.47 1885.91 L 1224.03 1887.27 C 1219.8 1886.77 1214.58 1880.99 1211.59 1877.91 C 1215.97 1856.17 1223.17 1834.28 1228.58 1812.84 C 1243.35 1754.38 1260.3 1696.59 1276.33 1638.57 C 1291.49 1581.97 1307.14 1525.5 1323.27 1469.17 C 1330.24 1444.51 1336.32 1419.55 1344.26 1395.16 C 1350.46 1376.14 1367.64 1354.96 1387.6 1349.31 C 1408.42 1343.41 1430.87 1339.63 1452.14 1334.88 L 1611.73 1299.74 L 1795.55 1257.85 C 1822.97 1251.61 1862.76 1241.57 1889.75 1237.34 z" fill="rgb(255,255,255)" transform="translate(0,0)"></path>
<path d="M 1068.13 273.436 C 1073.68 273.194 1077.5 273.353 1082.13 276.424 C 1086.4 283.594 1080.17 287.275 1075.52 292.226 C 1051.3 317.97 993.167 324.663 971.604 348.121 C 992.81 337.828 1018.27 335.069 1041.51 332.215 C 1055.14 330.541 1103.37 326.758 1112.83 334.249 C 1117.85 349.815 1061.5 355.506 1050.62 357.301 C 1013.85 364.14 1001.88 358.224 964.49 355.152 C 934.92 352.721 908.851 352.488 879.353 356.028 C 924.643 315.357 1007.49 278.543 1068.13 273.436 z" fill="rgb(193,191,191)" transform="translate(0,0)"></path>
<path d="M 379.729 1638.15 C 393.019 1644.17 434.054 1661.8 448.267 1664.33 L 448.661 1666.07 C 449.919 1671.9 450.269 1685.29 451.083 1691.96 C 453.548 1712.18 461.28 1728 470.288 1745.92 C 453.716 1742.02 436.009 1739.15 419.918 1734.82 C 400.074 1730.6 368.441 1720.39 349.703 1712.71 C 351.463 1689.27 362.042 1654.19 379.729 1638.15 z" fill="rgb(112,98,109)" transform="translate(0,0)"></path>
<path d="M 448.267 1664.33 L 448.661 1666.07 C 449.919 1671.9 450.269 1685.29 451.083 1691.96 C 453.548 1712.18 461.28 1728 470.288 1745.92 C 453.716 1742.02 436.009 1739.15 419.918 1734.82 C 422.806 1718.93 435.835 1674.37 448.267 1664.33 z" fill="rgb(193,191,191)" transform="translate(0,0)"></path>
<path d="M 1047.31 1808.3 C 1090.98 1795.25 1136.6 1785.95 1180.27 1772.45 C 1186.13 1770.64 1206.19 1764.23 1210.39 1765.69 L 1209.14 1766.63 L 1210.66 1765.13 L 1208.56 1767.13 L 1209.34 1768.14 C 1217.5 1765.24 1218.28 1766.9 1225.41 1770.99 C 1224.3 1775.14 1222.09 1784.86 1218.96 1787.42 L 1218.78 1790.36 C 1218.71 1794.19 1217.6 1795.31 1215.59 1798.57 L 1215.74 1800.23 C 1214.97 1806.31 1213.29 1811.26 1211.57 1817.12 L 1210.62 1819.31 C 1210.63 1820.41 1204.79 1845.38 1204.15 1848.03 C 1179.35 1841.95 1157.77 1836.56 1133.21 1829.58 C 1125.29 1827.84 1118.78 1826.16 1110.99 1823.91 C 1106.7 1823.68 1086.89 1817.47 1081.12 1816.02 C 1069.75 1813.16 1058.87 1810.7 1047.31 1808.3 z" fill="rgb(255,255,255)" transform="translate(0,0)"></path>
<path d="M 1215.74 1800.23 C 1214.97 1806.31 1213.29 1811.26 1211.57 1817.12 L 1210.62 1819.31 C 1210.63 1820.41 1204.79 1845.38 1204.15 1848.03 C 1179.35 1841.95 1157.77 1836.56 1133.21 1829.58 L 1133.95 1827.99 C 1142.62 1827.86 1200.19 1804.75 1215.74 1800.23 z" fill="rgb(255,255,255)" transform="translate(0,0)"></path>
<path d="M 1210.62 1819.31 C 1206.37 1818.94 1193.77 1815.54 1190.85 1812.67 C 1197.7 1812.86 1204.88 1815.25 1211.57 1817.12 L 1210.62 1819.31 z" fill="rgb(23,20,22)" transform="translate(0,0)"></path>
<path d="M 1201.42 1829.09 L 1202.39 1829.28 C 1199.53 1832.94 1188.85 1836.21 1184.19 1837.82 C 1175.82 1836.29 1164.65 1833.11 1156.23 1830.93 C 1155.55 1830.73 1154.87 1830.53 1154.19 1830.33 C 1177.73 1830.35 1172.56 1840.28 1201.42 1829.09 z" fill="rgb(23,20,22)" transform="translate(0,0)"></path>
<path d="M 1126.3 1794.7 C 1150.41 1796.69 1161.89 1803.5 1182.91 1808.27 C 1189.88 1806.12 1210.21 1798.55 1215.59 1798.57 L 1215.74 1800.23 C 1200.19 1804.75 1142.62 1827.86 1133.95 1827.99 L 1133.21 1829.58 C 1125.29 1827.84 1118.78 1826.16 1110.99 1823.91 C 1110.1 1821.66 1110.28 1822.11 1109.89 1819.71 C 1117.97 1820.12 1127.89 1824.36 1136.32 1826.82 L 1179.8 1810.02 C 1174.66 1809.13 1169.2 1807.57 1164.12 1806.27 L 1162.32 1807.39 C 1147.79 1799.16 1142.53 1799.31 1126.12 1796.74 L 1126.3 1794.7 z" fill="rgb(23,20,22)" transform="translate(0,0)"></path>
<path d="M 1110.99 1823.91 C 1110.1 1821.66 1110.28 1822.11 1109.89 1819.71 C 1117.08 1823 1126.24 1826.25 1133.95 1827.99 L 1133.21 1829.58 C 1125.29 1827.84 1118.78 1826.16 1110.99 1823.91 z" fill="rgb(193,191,191)" transform="translate(0,0)"></path>
<path d="M 1218.78 1790.36 C 1205.75 1789.26 1193 1786.92 1180.02 1785.32 C 1170.13 1784.1 1166.74 1787.93 1157.64 1790.95 L 1157.75 1790.08 C 1169.1 1784.31 1186.82 1779.35 1199.37 1780.75 C 1194.44 1782.97 1191.6 1780.79 1187.4 1783.27 C 1190.88 1786.2 1213.05 1787.07 1218.96 1787.42 L 1218.78 1790.36 z" fill="rgb(23,20,22)" transform="translate(0,0)"></path>
<path d="M 1108.43 1794.8 C 1114.2 1794.16 1120.66 1793.42 1126.3 1794.7 L 1126.12 1796.74 C 1122.45 1796.83 1112.58 1795.34 1108.43 1794.8 z" fill="rgb(112,98,109)" transform="translate(0,0)"></path>
<path d="M 1141.39 1805.05 L 1142.39 1805.41 L 1141.47 1807.1 C 1134.74 1810.96 1123.21 1814.71 1115.59 1816.74 L 1114.72 1815.96 C 1118.3 1813.27 1136.22 1807.01 1141.39 1805.05 z" fill="rgb(23,20,22)" transform="translate(0,0)"></path>
<path d="M 997.216 1426.82 C 1000.02 1431.55 1010.75 1464.14 1015.37 1474.13 C 1027.97 1501.38 1040.19 1517.33 1056.76 1541.63 C 1052.59 1544.32 1047.4 1547.23 1043.06 1549.8 C 1038.59 1552.85 1031.29 1559.82 1026.99 1563.7 C 1013.26 1525.9 1002.72 1495.48 999.42 1454.92 C 998.665 1445.65 997.002 1436.18 997.216 1426.82 z" fill="rgb(193,191,191)" transform="translate(0,0)"></path>
<path d="M 1060.75 1724.71 C 1078.69 1736.46 1084.75 1736.74 1105.45 1741.81 C 1087.52 1745.82 1069.67 1750.21 1051.93 1754.98 C 1047.43 1756.32 1020.96 1764.84 1018.28 1764.4 C 1019.19 1759.49 1035.64 1755.05 1042.69 1748.24 C 1052.62 1738.67 1053.56 1736.72 1060.75 1724.71 z" fill="rgb(255,255,255)" transform="translate(0,0)"></path>
<path d="M 1244.58 1686.33 L 1246.3 1686.72 C 1246.45 1690.74 1241.61 1705.26 1240.19 1710.26 L 1211.32 1716.67 L 1210 1716.6 C 1209.52 1715.04 1213.66 1696.88 1214.33 1692.57 C 1224.33 1690.31 1234.44 1687.84 1244.58 1686.33 z" fill="rgb(255,255,255)" transform="translate(0,0)"></path>
<path d="M 1226.49 1760.14 L 1227.59 1760.4 C 1227.95 1764.54 1227.75 1765.72 1224.96 1768.52 L 1222.41 1767.97 C 1219.81 1766.41 1219.15 1766.24 1217.17 1763.91 C 1218.48 1761.76 1223.39 1761.04 1226.49 1760.14 z" fill="rgb(255,255,255)" transform="translate(0,0)"></path>
<metadata><recraft-signature>{"signed_by": "recraft", "signature_b64": "TyfQZknqMl1hHWxDZqn1KjUh8iiGkVFJo+GmnpB71iIYaQKga1G7qBW+k/SaxHN0Xgyt7gNSWVTE8qudO8WoCA==", "signing_algo": "Ed25519", "generation_timestamp": 1777528208, "identifier": "31c44eae-07e5-48de-b999-58e2ca48819a"}</recraft-signature></metadata></svg>