<svg xmlns="http://www.w3.org/2000/svg" height="1024" preserveAspectRatio="none" style="display: block;" version="1.1" viewBox="0 0 2048 2048" width="1024">
<path d="M 0 0 L 2048 0 L 2048 2048 L 0 2048 L 0 0 z" fill="rgb(254,254,254)" transform="translate(0,0)"></path>
<path d="M 962.845 310.973 C 974.647 311.11 985.938 324.295 993.189 332.912 C 1014.49 358.232 1040.36 388.32 1056.89 416.769 C 1099.18 489.527 1151.16 592.055 1146.38 677.712 C 1160.37 689.061 1173.98 700.202 1183.87 715.607 C 1207.91 753.067 1211.16 809.645 1183.17 845.963 C 1180.8 849.815 1174.58 856.201 1173.09 860.205 C 1157.02 903.533 1136.16 942.745 1100.22 973.1 C 1087.93 983.483 1076.17 991.627 1062.38 1000.85 C 1109.28 1048.98 1131.43 1117.03 1161.45 1174.38 C 1171.98 1150.68 1179.93 1125.34 1189.87 1100.98 C 1198.39 1079.73 1209.63 1042.86 1232.8 1033.34 C 1258.21 1022.9 1295.63 1021.66 1323.35 1018.98 L 1407.49 1011.14 C 1450.22 1007.34 1492.93 1003.29 1535.61 998.975 L 1673.71 984.727 C 1705.89 981.254 1738.54 976.794 1771.06 975.22 C 1792.38 975.159 1822.34 972.159 1842.22 978.748 C 1871.29 988.383 1841.55 1037.93 1834.09 1054.16 L 1802.51 1123.26 C 1785.36 1160.16 1767.03 1197.03 1750.43 1233.74 C 1734.78 1269.27 1719.43 1304.92 1704.36 1340.7 C 1720.58 1351.11 1743.51 1363.47 1760.56 1373.53 L 1874.06 1441.55 C 1885.6 1448.56 1932.15 1474.62 1938.06 1484.18 C 1938.31 1487.91 1938.55 1488.02 1937.07 1491.58 C 1931.19 1497.81 1842.89 1512.44 1827.56 1515.41 C 1738.97 1533.35 1650.15 1550.19 1561.14 1565.93 C 1443.85 1585.57 1326.73 1606.2 1209.79 1627.82 L 661.387 1736.61 C 645.897 1728.88 632.425 1719.93 617.55 1711.71 C 588.082 1695.41 559.38 1677.14 530.232 1660.62 C 421.99 1598.59 313.082 1537.73 203.527 1478.05 C 184.703 1467.82 165.824 1457.7 146.89 1447.67 C 135.858 1441.84 123.678 1436.52 113.491 1429.37 C 111.178 1427.74 108.694 1425.97 107.983 1423.05 C 107.639 1421.64 107.484 1420.24 108.511 1419.13 C 116.014 1411.02 196.388 1405.03 212.397 1402.55 C 206.179 1375.67 197.247 1347.48 189.73 1320.84 C 177.683 1277.09 165.221 1233.45 152.345 1189.94 C 119.414 1079.04 59.8506 921.211 211.103 873.113 C 253.936 859.492 272.441 861.798 315.702 860.532 L 418.843 858.447 C 403.561 816.784 400.58 761.606 403.612 717.56 C 407.271 664.381 434.958 620.909 447.706 570.727 C 452.956 550.057 456.587 524.512 460.38 503.085 L 478.249 398.977 C 481.436 379.282 484.589 359.556 487.986 339.899 C 489.323 332.16 489.549 320.118 497.868 317.264 C 507.565 317.597 520.507 327.433 528.918 332.867 C 554.712 349.531 578.951 366.552 601.819 387.102 C 625.398 408.293 648.33 433.501 673.489 452.507 C 744.486 434.575 802.813 435.099 875.042 442.138 C 897.762 424.24 925.198 382.649 939.87 356.519 C 946.631 344.477 954.504 318.296 962.845 310.973 z" fill="rgb(57,58,58)" transform="translate(0,0)"></path>
<path d="M 1698.05 1354.45 C 1705.6 1357.24 1746.33 1381.68 1756.09 1387.35 C 1810.15 1418.58 1863.67 1450.73 1916.61 1483.82 C 1841.51 1499.51 1766.21 1514.23 1690.73 1527.96 L 1246.46 1606.58 C 1051.53 1642.84 857.057 1681.52 663.091 1722.61 C 636.94 1705.35 606.282 1689.01 579.138 1673.07 C 509.92 1632.59 440.202 1592.96 370.002 1554.21 C 350.423 1543.31 330.794 1533.19 311.164 1522.1 C 290.443 1509.97 268.65 1498.34 247.655 1486.54 C 212.064 1466.08 176.045 1446.39 139.621 1427.46 C 163.878 1422.6 201.424 1418.89 226.606 1415.7 L 381.474 1396.21 L 535.495 1378.04 L 598.876 1370.42 C 617.787 1368.25 624.626 1365.22 643.119 1370.73 C 642.629 1420.5 636.338 1411.15 679.455 1435.1 C 699.056 1446.2 718.861 1456.94 738.861 1467.31 C 763.212 1480.15 787.045 1493.96 811.461 1506.67 C 840.501 1521.8 870.944 1534.39 899.941 1549.59 C 903.274 1551.01 908.315 1552.77 911.933 1553.25 C 930.832 1555.1 944.215 1570.89 959.517 1579.22 C 982.094 1591.51 1009.89 1606.48 1033.86 1615.41 C 1074.98 1607.33 1123.67 1594.1 1164.88 1584.26 L 1412.91 1524.95 C 1467.75 1512.03 1522.46 1498.57 1577.04 1484.59 C 1593.2 1480.5 1609.35 1476.33 1625.47 1472.07 C 1644.15 1467.2 1656.11 1467.77 1665.52 1449.06 C 1671.94 1439.48 1668.34 1423.74 1671.43 1414.72 C 1678.13 1395.19 1689.26 1373 1698.05 1354.45 z" fill="rgb(254,254,254)" transform="translate(0,0)"></path>
<path d="M 598.61 1396.12 C 601.707 1396.26 604.463 1398.3 606.958 1400.1 C 665.509 1442.33 725.124 1482.89 784.828 1523.44 C 787.413 1525.2 793.285 1529.35 794.879 1531.82 C 793.959 1539.06 790.85 1540.45 783.676 1542.98 C 770.782 1547.54 757.505 1551.33 744.459 1555.52 L 660.254 1582.56 C 651.186 1585.79 643.188 1588.76 633.796 1591.07 C 622.499 1584.24 604.564 1569.4 593.973 1561.09 C 564.171 1537.75 534.94 1513.69 506.304 1488.93 C 497.662 1481.51 479.06 1467.18 472.719 1459.82 C 474.497 1452.48 476.517 1436.09 479.046 1431.34 C 488.631 1425.56 523.466 1417.69 536.079 1413.94 C 555.821 1408.09 578.732 1400.91 598.61 1396.12 z" fill="rgb(57,58,58)" transform="translate(0,0)"></path>
<path d="M 595.607 1412.14 C 598.797 1411.92 599.79 1411.69 602.889 1414 C 617.434 1424.84 632.254 1435.49 647.083 1445.92 C 688.069 1475.09 729.581 1503.51 771.597 1531.17 C 763.14 1534.66 749.369 1538.77 740.416 1541.73 L 669.752 1564.52 L 652.093 1570.61 C 620.391 1541.27 583.908 1513.18 550.886 1484.89 C 533.739 1470.21 512.776 1455.59 496.486 1440.26 C 529.03 1430.95 563.237 1420.25 595.607 1412.14 z" fill="rgb(254,254,254)" transform="translate(0,0)"></path>
<path d="M 487.483 1452.67 C 498.597 1454.68 591.762 1539.3 608.301 1550.43 C 611.885 1552.84 627.395 1567.15 631.281 1571.17 C 623.721 1568.88 493.016 1463.36 487.483 1452.67 z" fill="rgb(254,254,254)" transform="translate(0,0)"></path>
<path d="M 1081.74 572.461 C 1092.44 572.01 1103.15 572.14 1113.83 572.85 C 1124.23 596.636 1130.89 646.533 1132.21 673.048 C 1099.09 662.121 1069.84 660.532 1037.24 675.712 C 1009.37 688.905 987.905 712.661 977.598 741.722 C 967.455 770.072 969.112 801.307 982.197 828.425 C 995.409 855.678 1018.92 876.553 1047.55 886.44 C 1084.04 898.994 1117.87 892.354 1151.56 875.986 C 1089.14 1036.12 851.522 1067.47 703.273 1049.42 C 607.845 1037.8 529.778 1009.08 469.259 931.137 C 449.724 903.468 436.028 872.111 429.005 838.978 C 464.944 805.11 520.15 764.507 562.668 739.389 C 529.357 830.644 575.118 920.703 672.654 940.497 C 707.625 947.594 752.39 938.219 781.629 917.405 C 811.672 896.203 831.917 863.801 837.8 827.504 C 844.646 786.2 834.604 743.879 809.934 710.054 C 786.862 677.762 751.653 656.239 712.394 650.427 C 739.874 638.211 774.123 628.535 802.833 619.564 C 894.253 590.997 985.706 575.138 1081.74 572.461 z" fill="rgb(254,254,254)" transform="translate(0,0)"></path>
<path d="M 924.418 826.19 C 932.074 825.349 945.487 824.003 950.701 830.351 C 954.377 840.614 943.764 850.884 940.093 859.8 C 939.322 861.671 938.233 871.317 937.855 873.941 C 949.878 888.619 969.291 892.267 984.266 879.543 C 990.239 874.468 991.6 865.029 1000.18 865.015 C 1016.95 872.07 993.718 896.524 978.632 899.52 C 949.797 905.245 952.701 900.535 929.929 888.511 L 928.592 889.565 C 921.111 899.341 911.841 905.627 899.68 908.291 C 886.288 911.236 872.273 908.733 860.728 901.334 C 853.208 896.593 845.282 885.074 850.796 876.614 C 861.8 872.916 863.452 887.434 874.913 892.227 C 884.868 896.389 889.575 896.389 900.384 892.595 C 907.114 890.232 916.91 883.172 919.101 876.219 C 924.601 858.774 908.095 850.686 903.074 840.104 C 903.162 829.979 916.558 827.809 924.418 826.19 z" fill="rgb(57,58,58)" transform="translate(0,0)"></path>
<path d="M 533.852 1011.3 C 550.376 1018.86 561.533 1026.7 580.991 1034.38 C 704.857 1083.27 888.024 1078.84 1009.51 1026.92 C 1025.71 1043.31 1062.01 1112.79 1070.78 1135.82 C 1066.39 1137.16 1041.54 1143.05 1058.54 1154.89 C 1060.23 1156.07 1076.33 1150.03 1080.67 1149.49 C 1118.68 1144.76 1136.44 1163.35 1154.05 1193.05 C 1150.78 1203.54 1145.04 1217.25 1140.99 1227.66 C 1137.09 1220.71 1125.21 1197.37 1115.81 1210.85 C 1114.53 1217.58 1128.84 1237.8 1133.27 1244.91 C 1125.88 1265.29 1117.92 1285.47 1109.42 1305.41 C 1109.48 1299.78 1109.26 1294.14 1108.75 1288.53 C 1106.87 1267.76 1100.4 1243.79 1090.27 1225.23 C 1087.24 1219.68 1083.93 1216.67 1077.48 1217.92 C 1076.44 1218.83 1072.96 1222.53 1073.6 1223.99 C 1084.96 1250.07 1096.62 1276.3 1095.39 1305.63 C 1095.12 1311.88 1090.1 1318.94 1082.82 1316.99 C 1060.04 1310.91 1053.18 1285.96 1048.66 1265.75 C 1046.86 1257.85 1046.44 1244.5 1042.35 1238.01 C 1038.33 1235.07 1030.94 1234.83 1030.58 1239.41 C 1029.34 1255.43 1036.07 1278.11 1041.09 1292.97 C 1030.12 1294.95 1019.12 1296.75 1008.09 1298.37 C 1001.81 1278.17 991.019 1236.24 987.019 1215.33 L 971.25 1129.74 C 970.128 1123.82 966.41 1101.88 964.364 1097.62 C 961.319 1095.1 961.457 1095.25 957.54 1094.37 C 951.357 1095.97 951.248 1102.33 952.032 1107.86 C 954.678 1126.5 959.129 1144.99 962.366 1163.53 C 970.646 1210.97 980.479 1256.24 994.765 1302.2 C 958.595 1306.65 916.785 1314.8 881.251 1317.17 C 879.625 1308.82 878.329 1300.95 875.421 1292.92 C 873.819 1288.58 871.769 1284.43 869.304 1280.52 C 845.726 1243.82 797.042 1228.45 757.486 1216.52 C 734.077 1209.27 710.349 1203.09 686.376 1198.01 C 683.635 1185.08 674.063 1105.44 662.992 1105.65 C 652.121 1111.86 658.599 1128.29 660.295 1138 C 663.467 1156.95 666.836 1175.86 670.401 1194.75 C 662.555 1192.92 622.213 1182.13 622.721 1196.02 C 624.898 1200.19 626.635 1201.58 631.74 1202.58 C 646.217 1205.42 660.741 1207.37 675.214 1210.54 C 726.982 1222.13 771.981 1232.22 820.149 1256.77 C 852.066 1273.03 878.298 1306.84 860.803 1344.91 C 855.721 1355.97 840.527 1361.04 828.911 1363.79 C 825.17 1336.14 819.998 1307.97 801.899 1285.5 C 798.679 1281.5 795.927 1279.1 790.894 1278.66 C 775.185 1283.79 792.304 1298.02 795.374 1303.89 C 804.848 1321.99 812.831 1344.67 813.967 1365.22 L 814.032 1366.6 C 797.879 1371.1 790.913 1371.02 774.463 1371.3 C 772.46 1347.13 763.79 1327.23 751.411 1306.62 C 748.26 1301.38 741.207 1292.35 735.021 1290.92 C 717.239 1294.23 738.148 1313.84 742.366 1320.81 C 752.284 1337.22 757.248 1354.15 761.318 1372.62 C 723.244 1376.74 701.289 1379.82 682.405 1337.79 C 679.767 1331.91 679.033 1325.97 674.049 1322.22 C 670.212 1321.86 670.206 1321.64 666.502 1323.17 C 658.376 1332.39 676.301 1354.88 682.126 1364.04 C 649.948 1364.2 632.888 1349.69 605.824 1335.1 C 565.045 1313.12 531.699 1289.51 496.074 1260.35 C 500.415 1206.89 506.848 1153.62 515.358 1100.66 C 519.52 1073.87 524.799 1036.05 533.852 1011.3 z" fill="rgb(254,254,254)" transform="translate(0,0)"></path>
<path d="M 421.303 872.493 C 422.466 872.434 423.416 873.035 423.805 874.195 C 442.567 930.039 471.829 963.228 518.031 1000.19 C 441.471 1049.27 423.642 1290.88 416.646 1378.17 C 370.338 1383.16 324.078 1388.58 277.869 1394.42 L 276.402 1393.88 C 274.471 1388.72 271.415 1373.81 269.756 1367.23 C 265.115 1348.6 260.206 1330.03 255.031 1311.53 L 218.892 1183.99 C 197.976 1112.13 151.952 984.402 212.604 919.898 C 262.76 866.558 353.97 874.415 421.303 872.493 z" fill="rgb(254,254,254)" transform="translate(0,0)"></path>
<path d="M 682.454 663.336 C 739.221 656.274 791.473 696.148 813.974 746.257 C 811.672 744.284 809.329 742.36 806.944 740.488 C 791.64 728.578 771.38 721.6 751.978 724.83 C 674.761 737.687 674.937 874.675 726.82 912.956 C 731.75 915.633 736.608 918.442 741.386 921.382 C 698.471 931.755 658.236 930.874 620.988 903.878 C 592.485 883.588 573.396 852.637 568.058 818.059 C 562.163 782.003 571.07 745.094 592.762 715.696 C 615.767 684.62 644.784 668.982 682.454 663.336 z" fill="rgb(254,254,254)" transform="translate(0,0)"></path>
<path d="M 246.057 879.434 L 246.52 879.855 C 245.171 881.976 232.366 886.611 227.662 889.309 C 207.4 901.133 191.353 919.008 181.775 940.422 C 153.214 1004.14 172.132 1068.85 188.774 1132.26 C 204.526 1190.08 220.926 1247.72 237.972 1305.16 C 245.188 1330.31 254.833 1374.36 263.369 1396.62 C 255.266 1397.83 233.973 1401.27 226.776 1400.77 C 221.943 1379.6 214.721 1357.29 208.965 1336.18 C 194.495 1281.97 179.243 1227.97 163.212 1174.2 C 150.693 1131.27 137.697 1088.12 130.228 1044.07 C 122.094 996.087 127.792 938.517 171.184 908.684 C 192.616 893.948 220.335 883.176 246.057 879.434 z" fill="rgb(254,254,254)" transform="translate(0,0)"></path>
<path d="M 1076.25 680.337 C 1121.89 674.439 1161.4 699.068 1180.09 740.19 C 1130.72 694.433 1076.16 743.167 1075.55 798.207 C 1075.26 824.667 1077.56 843.858 1095.54 864.292 C 1100.92 870.001 1104.32 872.022 1110.79 875.937 C 1083.71 880.044 1055.85 877.618 1032.76 862.604 C 950.49 809.113 982.168 694.38 1076.25 680.337 z" fill="rgb(254,254,254)" transform="translate(0,0)"></path>
<path d="M 1765.72 989.587 C 1784.48 987.567 1824.23 988.008 1841.45 993.567 C 1830.11 997.388 1811.45 998.295 1799.09 999.958 C 1767.41 1004.22 1735.52 1006.89 1703.78 1010.27 L 1306.7 1050.13 C 1296.16 1051.23 1253.34 1057.31 1247.05 1055.55 C 1243.39 1052.84 1242.16 1049.51 1239.98 1045.41 C 1261.13 1038.37 1307.37 1035.34 1331.9 1032.97 C 1379.42 1028 1426.99 1023.57 1474.61 1019.68 C 1571.72 1010.43 1668.76 1000.4 1765.72 989.587 z" fill="rgb(254,254,254)" transform="translate(0,0)"></path>
<path d="M 1451.8 1480.63 C 1462.6 1491.8 1468.45 1493.51 1483.83 1492.03 L 1483.86 1493.8 C 1460.93 1498.23 1432.15 1506.25 1409 1511.91 L 1285.89 1541.6 C 1203.67 1561.64 1121.88 1579.4 1039.69 1600.71 C 1039.52 1589.83 1039.8 1578.96 1040.53 1568.11 C 1083.77 1557.79 1129.86 1549.67 1173.58 1540.31 C 1191.17 1564.13 1206.95 1555.5 1232.37 1549.21 C 1261.25 1542.07 1290.74 1535.25 1319.07 1526.52 C 1323.57 1525.13 1325.64 1514.84 1326.68 1510.72 C 1338.43 1506.46 1358.42 1502.46 1371.24 1499.54 C 1398.19 1493.66 1425.05 1487.36 1451.8 1480.63 z" fill="rgb(254,254,254)" transform="translate(0,0)"></path>
<path d="M 1230.4 1052.7 C 1232.44 1055.02 1234.69 1060.64 1236.12 1063.73 C 1209.38 1122.93 1185.69 1188.56 1162.06 1249.49 C 1134.64 1319.05 1106.24 1388.22 1076.86 1456.98 C 1066.26 1481.67 1055.11 1510.05 1044.01 1534.07 L 1042.5 1534.44 C 1039.55 1533.19 1036.48 1531.6 1033.58 1530.17 C 1036.43 1520.96 1041.58 1509.43 1045.29 1500.3 C 1053.26 1480.64 1061.35 1461.03 1069.56 1441.48 L 1126.55 1300.94 C 1146.21 1252.52 1165.47 1203.94 1184.35 1155.2 C 1194.79 1127.97 1204.8 1100.15 1215.67 1073.09 C 1218.44 1066.2 1225.26 1058.1 1230.4 1052.7 z" fill="rgb(254,254,254)" transform="translate(0,0)"></path>
<path d="M 793.111 1385.43 C 796.039 1384.98 795.836 1384.94 798.675 1385.75 C 813.451 1399.83 818.824 1401.18 836.575 1409.25 C 850.472 1415.59 864.309 1422.05 878.084 1428.65 C 927.663 1452.82 979.304 1478.75 1029.12 1502.07 C 1026.12 1509 1023.62 1516.62 1021.12 1523.79 L 994.322 1510.59 L 814.289 1422.33 C 791.169 1411.08 766.545 1400.85 743.901 1389.22 C 759.944 1388.62 777.026 1386.85 793.111 1385.43 z" fill="rgb(254,254,254)" transform="translate(0,0)"></path>
<path d="M 1049.8 1311.07 C 1052.95 1311.9 1051.77 1311.05 1053.61 1313.51 C 1047.63 1318.5 928.165 1333.64 914.428 1336.75 C 909.508 1337.86 905.573 1335.77 902.337 1341.59 C 903.902 1356.76 929.155 1348.64 939.548 1347.5 C 987.216 1342.27 1035.06 1329.91 1083.17 1331.58 C 1088.41 1331.77 1094.33 1330.08 1099.97 1330.17 L 1100.23 1331.44 C 1098.24 1333.55 1096.76 1334.54 1093.51 1334.9 C 1078.05 1336.64 1062.55 1339.77 1047.26 1342.56 C 996.2 1351.92 945.093 1360.99 893.935 1369.78 C 882.764 1371.75 840.82 1377.93 833.503 1382.18 L 832.752 1385.51 C 833.479 1387.62 833.656 1388.43 835.547 1389.8 C 845.292 1396.81 908.281 1381.8 922.121 1379.24 C 971.594 1369.54 1021.9 1361.42 1071.43 1351.78 C 1075.95 1350.9 1086.55 1348.3 1090.35 1350.47 C 1087.58 1355.57 1066.68 1357.82 1060.37 1358.94 C 995.206 1370.47 930.439 1383.89 865.295 1395.65 C 858.908 1396.8 860.309 1398.48 855.887 1401.16 C 847.095 1399.13 820.135 1386.42 812.768 1381.21 C 847.459 1370.97 869.33 1378.62 880.493 1333.56 C 895.041 1333.1 914.029 1329.97 928.649 1327.88 L 1001.52 1317.49 C 1017.75 1315.28 1034.92 1316.8 1049.8 1311.07 z" fill="rgb(254,254,254)" transform="translate(0,0)"></path>
<path d="M 494.857 1279.46 C 498.312 1281.57 503.514 1285.47 506.735 1288 C 539.998 1314.16 575.824 1333.99 612.555 1354.83 C 606.551 1355.04 599.355 1355.81 593.283 1356.32 C 559.24 1361.33 525.075 1365.48 490.821 1368.76 C 493.825 1338.69 493.965 1309.61 494.857 1279.46 z" fill="rgb(254,254,254)" transform="translate(0,0)"></path>
<path d="M 531.308 409.398 C 537.944 413.755 589.625 490.087 595.998 500.653 C 583.657 502.23 571.354 504.089 559.098 506.228 C 541.097 508.999 522.916 511.953 505.248 516.384 C 513.667 480.303 523.651 446.005 531.308 409.398 z" fill="rgb(254,254,254)" transform="translate(0,0)"></path>
<path d="M 657.759 1389.41 C 710.368 1411.56 761.363 1439.11 812.685 1464.08 C 823.056 1469.13 834.834 1473.9 844.605 1479.84 L 844.731 1480.65 C 840.921 1479.86 842.51 1479.45 839.555 1480.8 C 837.344 1484.48 837.328 1488.76 836.81 1493.15 C 836.654 1496.68 836.881 1499.2 835.315 1502.35 C 821.909 1497.51 789.771 1478.32 775.733 1471.09 C 735.424 1450.33 695.828 1428.15 656.277 1406 C 656.816 1400.47 657.31 1394.95 657.759 1389.41 z" fill="rgb(254,254,254)" transform="translate(0,0)"></path>
<path d="M 1185.49 1520.78 C 1177.34 1532.13 1090.78 1540.99 1073.01 1547.34 C 1070.29 1548.31 1060.12 1549.66 1056.83 1549.52 C 1056.72 1549.21 1056.56 1548.91 1056.48 1548.58 C 1054.56 1539.93 1117.09 1397.71 1126.36 1380.14 C 1117.21 1428.16 1093.48 1471.74 1077.81 1517.82 C 1076.03 1523.05 1072.06 1534.18 1074.5 1539.19 C 1075.23 1539.66 1075.96 1540.13 1076.69 1540.59 C 1105.41 1534.76 1160.13 1523.01 1186.13 1517.64 C 1226.92 1508.64 1267.82 1500.1 1308.81 1492.02 C 1338.42 1486.29 1367.94 1480.16 1397.38 1473.64 C 1414.27 1470.03 1434.53 1466.19 1450.87 1461.49 C 1484.88 1449.09 1541.36 1437.22 1577.4 1430.96 C 1583.6 1428.37 1646.55 1413.43 1651.49 1413.9 C 1654.76 1416.17 1654.29 1414.93 1655.35 1417.75 C 1637.52 1423.77 1608.14 1428.97 1587.32 1435.13 C 1584.34 1434.01 1580.27 1432.34 1577.3 1431.68 C 1538.67 1441.51 1500.26 1451.25 1461.23 1459.46 C 1458.34 1460.07 1456.15 1461.07 1453.84 1462.87 C 1453 1464.74 1452.48 1467.05 1451.05 1467.42 C 1436.06 1471.27 1419.78 1474.81 1404.77 1478.21 L 1353.8 1489.63 C 1344.29 1491.74 1334.12 1494.31 1324.53 1495.54 C 1318.84 1496.27 1315.57 1493.53 1308.28 1494.34 C 1277.25 1500.02 1246.39 1508.26 1215.27 1513.83 C 1205.94 1515.5 1194.28 1517.64 1185.49 1520.78 z" fill="rgb(254,254,254)" transform="translate(0,0)"></path>
<path d="M 690.855 1376.18 C 693.575 1376.54 695.784 1378.46 697.521 1378.94 C 705.605 1381.18 713.049 1391.12 719.051 1393.89 C 727.911 1397.97 737.517 1402.05 746.487 1406.08 C 761.441 1412.9 776.31 1419.9 791.09 1427.09 L 977.409 1518.26 C 995.072 1526.92 1019.43 1538.13 1037.18 1548.04 C 1039.05 1549.09 1039.42 1551.92 1039.66 1553.76 C 1037.87 1556.6 1039.07 1555.44 1035.55 1556.88 C 1031.22 1556.89 1028.22 1554.61 1024.31 1552.44 C 986.197 1532.48 943.764 1512.49 905.083 1493.78 L 807.295 1446.01 C 760.462 1423.57 718.03 1401.17 669.959 1380.38 C 678.341 1379.93 683.226 1379.32 690.855 1376.18 z" fill="rgb(254,254,254)" transform="translate(0,0)"></path>
<path d="M 987.529 392.448 C 999.508 400.542 1048.31 469.032 1057.58 483.045 C 1037.64 482.641 1015.4 481.337 995.401 480.27 C 993.357 455.568 991.124 415.451 987.529 392.448 z" fill="rgb(254,254,254)" transform="translate(0,0)"></path>
<path d="M 967.408 1537.97 C 983.236 1543.92 1010.29 1558.59 1025.88 1566.75 C 1025.96 1577.18 1025.66 1586.28 1024.56 1596.63 C 1008.93 1589.73 980.2 1573.94 964.784 1565.42 C 964.525 1554.85 965.784 1548.29 967.408 1537.97 z" fill="rgb(254,254,254)" transform="translate(0,0)"></path>
<path d="M 1305.61 1507.2 C 1307.99 1506.98 1307.07 1506.98 1309.5 1507.84 C 1311.46 1510.61 1311.28 1509.21 1310.85 1512.02 C 1305.76 1517.04 1262.19 1525.41 1250.99 1529.25 C 1241.29 1532.56 1210.53 1540.31 1200.16 1540.97 C 1196.78 1539.88 1193.51 1538.33 1192.11 1534.9 L 1193.16 1532.93 C 1201.76 1529.14 1224.68 1524.79 1234.67 1522.64 L 1305.61 1507.2 z" fill="rgb(254,254,254)" transform="translate(0,0)"></path>
<path d="M 1595.2 1446.07 C 1617.56 1441.59 1635.46 1437.66 1657.34 1431.53 C 1654.44 1438.99 1652.48 1444.27 1647.81 1450.96 C 1632.15 1458.01 1597.71 1462.14 1581.27 1469.48 L 1579.84 1467.66 C 1593.39 1462.66 1594.48 1459.5 1595.2 1446.07 z" fill="rgb(254,254,254)" transform="translate(0,0)"></path>
<path d="M 1574.85 1446.38 C 1577.05 1446.66 1577.94 1447.35 1580 1448.33 C 1580.59 1449.97 1580.43 1449.08 1579.36 1451.37 C 1571.34 1456.45 1485.9 1476.87 1474.48 1475.99 L 1465.58 1471.67 L 1532.64 1455.71 C 1545.73 1452.6 1561.89 1448.29 1574.85 1446.38 z" fill="rgb(254,254,254)" transform="translate(0,0)"></path>
<path d="M 881.975 1499.06 C 888.626 1501.33 890.71 1502.58 896.773 1506.03 C 896.969 1511.87 897.903 1527.12 895.638 1532.06 C 890.035 1528.93 884.491 1525.7 879.007 1522.37 C 881.938 1512.26 882.14 1509.13 881.975 1499.06 z" fill="rgb(254,254,254)" transform="translate(0,0)"></path>
<path d="M 938.467 1395.31 C 940.507 1394.94 946.528 1394.67 948.889 1394.5 C 953.467 1397.31 955.325 1398.04 960.38 1399.99 L 932.253 1405.54 C 922.589 1408.25 919.951 1405.03 911.29 1400.46 C 919.906 1398.44 929.685 1396.89 938.467 1395.31 z" fill="rgb(254,254,254)" transform="translate(0,0)"></path>
<path d="M 949.501 1436.43 C 954.668 1435.3 970.504 1443.65 976.191 1446.2 C 968.413 1447.25 964.62 1447.73 957.175 1450 L 955.656 1450.52 C 946.691 1446.88 939.633 1443.06 931.116 1438.56 C 937.178 1437.57 943.381 1437.05 949.501 1436.43 z" fill="rgb(254,254,254)" transform="translate(0,0)"></path>
<path d="M 1023.48 1400.29 C 1024.67 1400.51 1034.16 1405.47 1035.93 1406.37 C 1024.74 1408.71 1013.59 1411.19 1002.47 1413.82 C 999.556 1413.48 992.188 1408.84 989.354 1407.19 C 1000.78 1405.14 1012.16 1402.84 1023.48 1400.29 z" fill="rgb(254,254,254)" transform="translate(0,0)"></path>
<path d="M 1002.39 1427.27 C 1004.41 1427.75 1016.23 1433.79 1018.87 1435.1 C 1008.66 1437.01 1003.05 1438.11 993.198 1441.35 C 990.47 1440.51 980.038 1434.35 977.033 1432.65 C 984.16 1431.68 995.103 1428.89 1002.39 1427.27 z" fill="rgb(254,254,254)" transform="translate(0,0)"></path>
<path d="M 1040.84 1470.39 C 1039.42 1476.57 1036.57 1482.52 1034.08 1488.39 L 1014.65 1478.97 C 1012.74 1477.85 1007.33 1475.49 1005.07 1474.43 C 1015.06 1473.43 1033.22 1473.63 1040.84 1470.39 z" fill="rgb(254,254,254)" transform="translate(0,0)"></path>
<path d="M 971.09 1411.27 C 973.798 1411.39 983.582 1415.96 986.734 1417.32 C 978.653 1419.52 966.586 1421.2 958.074 1422.64 C 953.422 1423.67 945.608 1419.01 941.275 1416.79 C 951.495 1414.75 960.565 1413.73 971.09 1411.27 z" fill="rgb(254,254,254)" transform="translate(0,0)"></path>
<path d="M 993.543 1385.25 C 997.695 1384.63 1004.63 1388.56 1009.23 1390.58 C 999.01 1392.78 988.56 1394.34 978.235 1396.01 C 972.556 1396.63 966.854 1393.83 961.692 1391.64 C 971.172 1389.27 983.707 1387.14 993.543 1385.25 z" fill="rgb(254,254,254)" transform="translate(0,0)"></path>
<path d="M 1034.11 1445.24 C 1039.31 1444.77 1045.44 1448.01 1047.56 1452.93 C 1045.93 1456.14 1047.12 1454.83 1043.46 1456.58 L 1042.39 1454.76 C 1039.14 1453.81 1033.17 1455.88 1029.27 1456.77 C 1026.1 1457.35 1015.04 1451.92 1010.81 1450.3 C 1018.37 1448.93 1026.56 1446.92 1034.11 1445.24 z" fill="rgb(254,254,254)" transform="translate(0,0)"></path>
<path d="M 892.619 1404.3 C 895.86 1403.89 904 1409.03 908.421 1411.13 C 902.205 1412.89 895.842 1414.55 889.594 1416.24 C 883.215 1414.09 876.879 1411.3 870.658 1408.7 C 876.926 1407.02 886.041 1405.55 892.619 1404.3 z" fill="rgb(254,254,254)" transform="translate(0,0)"></path>
<path d="M 1049.08 1375.46 C 1052.77 1375.91 1058.22 1377.28 1061.99 1378.11 C 1050.91 1381.48 1035.63 1384.47 1024.26 1385.81 L 1022.66 1386.37 L 1012.91 1381.59 C 1025.18 1379.7 1036.42 1377.05 1049.08 1375.46 z" fill="rgb(254,254,254)" transform="translate(0,0)"></path>
<path d="M 991.027 1456.53 C 995.572 1455.11 1005.69 1460.94 1010.32 1463.18 C 1003.55 1464.53 997.407 1466.08 990.723 1467.79 L 970.093 1457.31 C 977.067 1456.95 984.046 1456.69 991.027 1456.53 z" fill="rgb(254,254,254)" transform="translate(0,0)"></path>
<path d="M 1483.83 1492.03 C 1514.87 1483.79 1548.66 1474.65 1579.84 1467.66 L 1581.27 1469.48 C 1560.64 1474.43 1540.05 1479.53 1519.5 1484.79 C 1508.89 1487.56 1494.05 1492.17 1483.86 1493.8 L 1483.83 1492.03 z" fill="rgb(204,205,207)" transform="translate(0,0)"></path>
<path d="M 1044.17 1419.27 C 1049.06 1418.61 1053.82 1422.23 1058.37 1424.79 L 1035.59 1429.59 C 1030.89 1430.65 1026.12 1426.9 1021.95 1424.42 C 1029.34 1422.64 1036.75 1420.92 1044.17 1419.27 z" fill="rgb(254,254,254)" transform="translate(0,0)"></path>
<path d="M 1454.38 1322.66 L 1458.54 1322.88 C 1465.78 1328.19 1460.02 1337.64 1455.59 1343 C 1441.92 1341.53 1449.2 1329.13 1454.38 1322.66 z" fill="rgb(254,254,254)" transform="translate(0,0)"></path>
<path d="M 917.538 1421.08 C 922.524 1421.25 930.089 1425.15 935.047 1427.32 C 931.147 1428.22 926.685 1428.91 922.707 1429.62 C 913.433 1432.3 911.519 1430.15 902.461 1425.93 C 907.635 1423.88 912.223 1422.62 917.538 1421.08 z" fill="rgb(254,254,254)" transform="translate(0,0)"></path>
<path d="M 1071.63 1390.1 C 1073.76 1390.06 1072.66 1389.84 1074.87 1391.05 L 1073.94 1393.36 C 1069.44 1397.49 1053.01 1400.39 1047.49 1400.18 C 1045.05 1399.02 1042.78 1397.83 1040.39 1396.57 C 1043.01 1395.15 1063.41 1392.6 1070.19 1390.55 L 1071.63 1390.1 z" fill="rgb(254,254,254)" transform="translate(0,0)"></path>
<metadata><recraft-signature>{"signed_by": "recraft", "signature_b64": "e4DjtD12QXcunZZclHLJPfU1H0ZrrDM/PY3BPb+HuPETpPsHJ15OZh7pgVug6X/nhnH5iq3HflNJhs1ghoDGDg==", "signing_algo": "Ed25519", "generation_timestamp": 1777527811, "identifier": "44945f69-7e8c-4679-bd43-d76f99d8d303"}</recraft-signature></metadata></svg>