<?xml version="1.0" encoding="UTF-8" standalone="no"?>
<svg version="1.1" xmlns="http://www.w3.org/2000/svg"
 width="320" height="320" viewBox="0 0 3200 3200"
 preserveAspectRatio="xMidYMid meet">
<title>FileSurf Logo</title>
<desc>FileSurf - AI Workflow Platform</desc>

<!-- Background and main structure in orange -->
<g transform="translate(0,3200) scale(1,-1)" fill="#EA8029" stroke="none">
<path d="M0 1600 l0 -1600 1600 0 1600 0 0 1600 0 1600 -1600 0 -1600 0 0
-1600z m2143 1296 c18 -8 134 -117 259 -242 251 -254 259 -265 222 -341 -30
-61 -66 -73 -221 -73 -128 0 -132 1 -151 25 -11 14 -23 42 -27 62 -10 57 -22
73 -54 73 -31 0 -45 -12 -55 -50 -4 -14 -14 -42 -23 -62 -14 -33 -21 -38 -62
-44 -25 -4 -316 -4 -646 0 -667 7 -641 4 -678 76 -28 55 -18 116 27 157 l36
33 609 0 c573 0 610 1 631 18 25 20 30 63 10 87 -11 13 -70 15 -427 15 -446 0
-453 1 -502 54 -34 36 -40 118 -13 162 41 64 37 64 560 64 382 0 479 -3 505
-14z m-1253 -66 c24 -24 25 -48 4 -78 -15 -21 -21 -22 -191 -22 -150 0 -179 2
-195 17 -24 21 -23 58 2 83 18 18 33 20 190 20 157 0 172 -2 190 -20z m-378
-417 c22 -20 24 -66 2 -87 -13 -13 -44 -16 -185 -16 -156 0 -171 2 -189 20
-24 24 -26 57 -3 82 14 16 34 18 186 18 145 0 173 -3 189 -17z m1727 -245 l34
-17 -27 -7 c-30 -7 -66 -48 -66 -75 0 -11 -4 -19 -10 -19 -5 0 -10 8 -10 18 0
23 -34 60 -68 73 l-27 11 37 19 c25 13 41 30 49 54 l13 35 21 -38 c11 -20 36
-45 54 -54z m-1398 -56 c26 -23 33 -38 37 -80 5 -60 -10 -92 -61 -122 -41 -26
-172 -28 -222 -4 -83 39 -95 148 -24 209 28 23 38 25 135 25 100 0 105 -1 135
-28z m529 -9 c0 -64 20 -113 63 -161 60 -64 124 -92 215 -92 91 0 111 -17 142
-119 23 -78 43 -97 83 -82 18 7 30 24 42 63 33 99 51 126 91 134 60 11 295 -1
334 -18 54 -23 98 -65 128 -122 26 -50 27 -54 27 -241 l0 -190 -175 -3 -176
-2 -11 66 c-13 75 -41 123 -95 160 -73 51 -88 53 -454 54 -393 0 -407 2 -484
80 -71 70 -80 108 -80 327 l0 183 175 0 175 0 0 -37z m540 -108 c13 -14 39
-30 59 -36 50 -16 57 -25 24 -32 -56 -11 -97 -49 -119 -110 l-20 -58 -17 55
c-20 61 -55 97 -114 117 l-37 12 43 13 c59 17 88 47 108 112 l17 53 17 -51 c9
-28 27 -62 39 -75z m1010 -488 c74 -38 91 -141 31 -201 -30 -30 -35 -31 -125
-34 -129 -5 -167 17 -190 110 -8 36 14 89 49 116 24 19 40 22 119 22 53 0 101
-6 116 -13z m-177 -351 c54 -23 80 -59 84 -118 3 -41 -1 -61 -17 -86 -39 -63
-27 -62 -694 -62 l-605 0 -15 -22 c-22 -31 -20 -45 9 -73 l24 -25 412 0 c395
0 413 -1 444 -20 87 -54 84 -194 -6 -242 -31 -17 -68 -18 -504 -18 -391 0
-475 3 -498 15 -29 15 -424 413 -464 468 -44 59 -20 146 48 180 31 15 112 17
892 17 705 0 863 -2 890 -14z"/>
</g>

<!-- Dark text/lines overlay -->
<g transform="translate(0,3200) scale(1,-1)" fill="#243139" stroke="none">
<path d="M442 828 c-7 -7 -12 -24 -12 -38 0 -47 11 -50 207 -50 173 0 183 1
193 20 12 22 4 60 -14 72 -20 13 -361 9 -374 -4z"/>
<path d="M2819 735 c-40 -22 -59 -58 -59 -112 1 -52 14 -76 57 -105 63 -41
157 -7 181 67 17 51 8 88 -33 130 -28 30 -39 35 -76 35 -24 -1 -56 -7 -70 -15z"/>
<path d="M450 590 c-11 -11 -20 -29 -20 -40 0 -30 38 -63 63 -56 12 3 25 6 28
6 3 0 11 12 17 26 9 19 9 30 1 47 -23 42 -57 49 -89 17z"/>
<path d="M690 590 c-24 -24 -26 -53 -4 -74 13 -13 44 -16 185 -16 98 0 179 4
190 10 25 14 25 61 1 83 -16 14 -44 17 -185 17 -154 0 -169 -2 -187 -20z"/>
</g>
</svg>
